<svg width="45" height="45" viewBox="0 0 45 45" fill="none" xmlns="http://www.w3.org/2000/svg">
<path fill-rule="evenodd" clip-rule="evenodd" d="M38.5714 28.9286C42.1168 28.9286 45 26.0454 45 22.5C45 18.9546 42.1168 16.0714 38.5714 16.0714C35.0261 16.0714 32.1429 18.9546 32.1429 22.5C32.1429 26.0454 35.0261 28.9286 38.5714 28.9286ZM0 22.5C0 18.9546 2.88321 16.0714 6.42857 16.0714C9.97393 16.0714 12.8571 18.9546 12.8571 22.5C12.8571 26.0454 9.97393 28.9286 6.42857 28.9286C2.88321 28.9286 0 26.0454 0 22.5ZM32.1429 38.5714C32.1429 35.0261 35.0261 32.1429 38.5714 32.1429C42.1168 32.1429 45 35.0261 45 38.5714C45 42.1168 42.1168 45 38.5714 45C35.0261 45 32.1429 42.1168 32.1429 38.5714ZM0 38.5714C0 35.0261 2.88321 32.1429 6.42857 32.1429C9.97393 32.1429 12.8571 35.0261 12.8571 38.5714C12.8571 42.1168 9.97393 45 6.42857 45C2.88321 45 0 42.1168 0 38.5714Z" fill="white"/>
<path d="M22.5 32.1429C18.9546 32.1429 16.0714 35.0261 16.0714 38.5714C16.0714 42.1168 18.9546 45 22.5 45C26.0454 45 28.9286 42.1168 28.9286 38.5714C28.9286 35.0261 26.0454 32.1429 22.5 32.1429Z" fill="white" fill-opacity="0.75"/>
<path d="M22.5 16.0714C18.9546 16.0714 16.0714 18.9546 16.0714 22.5C16.0714 26.0454 18.9546 28.9286 22.5 28.9286C26.0454 28.9286 28.9286 26.0454 28.9286 22.5C28.9286 18.9546 26.0454 16.0714 22.5 16.0714Z" fill="white" fill-opacity="0.75"/>
<path d="M22.5 0C18.9546 0 16.0714 2.88321 16.0714 6.42857C16.0714 9.97393 18.9546 12.8571 22.5 12.8571C26.0454 12.8571 28.9286 9.97393 28.9286 6.42857C28.9286 2.88321 26.0454 0 22.5 0Z" fill="white" fill-opacity="0.75"/>
<path d="M38.5714 12.8571C42.1168 12.8571 45 9.97393 45 6.42857C45 2.88321 42.1168 0 38.5714 0C35.0261 0 32.1429 2.88321 32.1429 6.42857C32.1429 9.97393 35.0261 12.8571 38.5714 12.8571Z" fill="white" fill-opacity="0.75"/>
<path d="M6.42857 0C2.88321 0 0 2.88321 0 6.42857C0 9.97393 2.88321 12.8571 6.42857 12.8571C9.97393 12.8571 12.8571 9.97393 12.8571 6.42857C12.8571 2.88321 9.97393 0 6.42857 0Z" fill="white" fill-opacity="0.75"/>
</svg>
