<svg width="60" height="60" viewBox="0 0 60 60" fill="none" xmlns="http://www.w3.org/2000/svg">
<path fill-rule="evenodd" clip-rule="evenodd" d="M51.4286 38.5714C56.1557 38.5714 60 34.7271 60 30C60 25.2729 56.1557 21.4286 51.4286 21.4286C46.7014 21.4286 42.8571 25.2729 42.8571 30C42.8571 34.7271 46.7014 38.5714 51.4286 38.5714ZM0 30C0 25.2729 3.84429 21.4286 8.57143 21.4286C13.2986 21.4286 17.1429 25.2729 17.1429 30C17.1429 34.7271 13.2986 38.5714 8.57143 38.5714C3.84429 38.5714 0 34.7271 0 30ZM42.8571 51.4286C42.8571 46.7014 46.7014 42.8571 51.4286 42.8571C56.1557 42.8571 60 46.7014 60 51.4286C60 56.1557 56.1557 60 51.4286 60C46.7014 60 42.8571 56.1557 42.8571 51.4286ZM0 51.4286C0 46.7014 3.84429 42.8571 8.57143 42.8571C13.2986 42.8571 17.1429 46.7014 17.1429 51.4286C17.1429 56.1557 13.2986 60 8.57143 60C3.84429 60 0 56.1557 0 51.4286Z" fill="white"/>
<path d="M30 42.8571C25.2729 42.8571 21.4286 46.7014 21.4286 51.4286C21.4286 56.1557 25.2729 60 30 60C34.7271 60 38.5714 56.1557 38.5714 51.4286C38.5714 46.7014 34.7271 42.8571 30 42.8571Z" fill="white" fill-opacity="0.75"/>
<path d="M30 21.4286C25.2729 21.4286 21.4286 25.2729 21.4286 30C21.4286 34.7271 25.2729 38.5714 30 38.5714C34.7271 38.5714 38.5714 34.7271 38.5714 30C38.5714 25.2729 34.7271 21.4286 30 21.4286Z" fill="white" fill-opacity="0.75"/>
<path d="M30 0C25.2729 0 21.4286 3.84429 21.4286 8.57143C21.4286 13.2986 25.2729 17.1429 30 17.1429C34.7271 17.1429 38.5714 13.2986 38.5714 8.57143C38.5714 3.84429 34.7271 0 30 0Z" fill="white" fill-opacity="0.75"/>
<path d="M51.4286 17.1429C56.1557 17.1429 60 13.2986 60 8.57143C60 3.84429 56.1557 0 51.4286 0C46.7014 0 42.8571 3.84429 42.8571 8.57143C42.8571 13.2986 46.7014 17.1429 51.4286 17.1429Z" fill="white" fill-opacity="0.75"/>
<path d="M8.57143 0C3.84429 0 0 3.84429 0 8.57143C0 13.2986 3.84429 17.1429 8.57143 17.1429C13.2986 17.1429 17.1429 13.2986 17.1429 8.57143C17.1429 3.84429 13.2986 0 8.57143 0Z" fill="white" fill-opacity="0.75"/>
</svg>
