<svg width="110" height="110" viewBox="0 0 110 110" fill="none" xmlns="http://www.w3.org/2000/svg">
<path fill-rule="evenodd" clip-rule="evenodd" d="M92.4971 50.0004C94.5813 50.0004 96.3515 50.7291 97.8102 52.1876C99.2692 53.6461 100.001 55.417 99.9995 57.4999V102.5C99.9995 104.583 99.2692 106.355 97.8121 107.813C96.3531 109.271 94.5833 110 92.499 110H17.5005C15.4179 110 13.6466 109.27 12.1882 107.813C10.73 106.355 10.0007 104.583 10.0007 102.5V57.5007C10.0007 55.4162 10.7297 53.645 12.1882 52.1876C13.6466 50.7291 15.4179 50.0004 17.5005 50.0004H20.0001H35.0001H74.9993H89.9985H92.4971Z" fill="white"/>
<path d="M89.9985 50.0004V34.9996C89.9985 25.4164 86.562 17.188 79.6867 10.313C72.8119 3.43765 64.5843 0 54.9997 0C45.4155 0 37.1862 3.43765 30.312 10.3127C23.4367 17.188 20.0001 25.4161 20.0001 34.9996V50.0004H35.0001V34.9996C35.0001 29.479 36.9536 24.7652 40.8597 20.8596C44.7664 16.9535 49.4795 15.0008 55.0006 15.0008C60.5222 15.0008 65.2342 16.9532 69.1411 20.8596C73.0461 24.7649 74.9993 29.479 74.9993 34.9996V50.0004H89.9985Z" fill="white" fill-opacity="0.8"/>
</svg>
