<svg width="63" height="72" viewBox="0 0 63 72" fill="none" xmlns="http://www.w3.org/2000/svg">
<path d="M34.1097 37.0318C34.6918 35.7826 34.1488 34.2919 32.8996 33.7098C31.6505 33.1277 30.1597 33.6707 29.5776 34.9199C28.9953 36.1696 29.5381 37.6596 30.7877 38.2419C32.0369 38.824 33.5272 38.2819 34.1097 37.0318Z" fill="white"/>
<path d="M27.5313 11.5018L52.4507 23.1139C53.4626 23.5855 54.7263 23.0166 55.273 21.8434C55.8195 20.6705 55.4425 19.3366 54.4306 18.8651L52.9647 18.182L54.0656 15.8194C54.6123 14.6462 54.2351 13.3127 53.2232 12.8411L34.8999 4.30272C33.8883 3.8313 32.6247 4.40023 32.078 5.57347L30.977 7.93604L29.5112 7.25296C28.4991 6.78135 27.2354 7.35061 26.6888 8.52352C26.1421 9.69676 26.5192 11.0302 27.5313 11.5018Z" fill="white"/>
<path fill-rule="evenodd" clip-rule="evenodd" d="M38.0517 21.5756L49.9531 27.1215L49.969 43.1765C49.9695 43.6057 49.8588 44.0401 49.6495 44.4295C49.4403 44.8189 49.1412 45.1473 48.7867 45.3767L20.6503 63.5986L30.9111 42.7123C33.4525 42.8282 36.4447 41.4911 37.7354 38.7213C39.3729 35.2072 37.242 31.1242 34.2109 29.7117L38.0517 21.5756Z" fill="white"/>
<path d="M17.0656 61.7192L26.8125 40.8025C25.0892 38.931 24.1494 35.915 25.4401 33.1452C27.0776 29.6311 31.1798 28.2993 34.2109 29.7117L38.0517 21.5756L26.1503 16.0297L13.7752 26.2978C13.4424 26.5738 13.1778 26.9403 13.0124 27.3541C12.8471 27.7679 12.7879 28.2118 12.8418 28.6339L17.0656 61.7192Z" fill="white" fill-opacity="0.75"/>
</svg>
