<svg width="66" height="76" viewBox="0 0 66 76" fill="none" xmlns="http://www.w3.org/2000/svg">
<path d="M36.0701 39.0102C36.6839 37.6931 36.1113 36.1213 34.7942 35.5075C33.4771 34.8938 31.9053 35.4663 31.2915 36.7834C30.6776 38.1011 31.2498 39.6721 32.5674 40.2861C33.8845 40.8999 35.4559 40.3283 36.0701 39.0102Z" fill="white"/>
<path d="M29.1338 12.0917L55.4084 24.3354C56.4754 24.8326 57.8078 24.2328 58.3842 22.9957C58.9605 21.759 58.563 20.3527 57.496 19.8555L55.9504 19.1352L57.1112 16.6442C57.6876 15.4071 57.2899 14.0011 56.223 13.5039L36.9032 4.50117C35.8365 4.00411 34.5043 4.60397 33.9278 5.84102L32.767 8.33208L31.2214 7.61184C30.1543 7.11459 28.8219 7.7148 28.2456 8.9515C27.6692 10.1885 28.0667 11.5945 29.1338 12.0917Z" fill="white"/>
<path fill-rule="evenodd" clip-rule="evenodd" d="M40.2264 22.7134L52.775 28.5609L52.7918 45.489C52.7924 45.9415 52.6756 46.3996 52.455 46.8101C52.2344 47.2207 51.919 47.5669 51.5452 47.8089L21.8787 67.0217L32.6975 44.9996C35.3771 45.1218 38.5321 43.7119 39.8929 40.7915C41.6195 37.0864 39.3726 32.7813 36.1767 31.292L40.2264 22.7134Z" fill="white"/>
<path d="M18.099 65.0401L28.376 42.9858C26.5589 41.0127 25.568 37.8326 26.9289 34.9122C28.6555 31.207 32.9808 29.8027 36.1767 31.292L40.2264 22.7134L27.6778 16.8659L14.6297 27.6924C14.2788 27.9834 13.9998 28.3698 13.8254 28.8061C13.6511 29.2424 13.5887 29.7105 13.6455 30.1555L18.099 65.0401Z" fill="white" fill-opacity="0.75"/>
</svg>
