<svg width="45" height="45" viewBox="0 0 45 45" fill="none" xmlns="http://www.w3.org/2000/svg">
<g clip-path="url(#clip0_17_331)">
<path d="M41.25 20.4037C40.7527 20.4037 40.2758 20.2062 39.9242 19.8546C39.5725 19.5029 39.375 19.026 39.375 18.5287C39.375 13.2694 37.3275 8.32687 33.6094 4.60687C33.2578 4.2553 33.0603 3.77846 33.0603 3.28125C33.0603 2.78404 33.2578 2.3072 33.6094 1.95562C33.961 1.60405 34.4378 1.40653 34.935 1.40653C35.4322 1.40653 35.909 1.60405 36.2606 1.95562C38.4438 4.12698 40.1747 6.70981 41.3529 9.55459C42.5312 12.3994 43.1335 15.4496 43.125 18.5287C43.125 19.026 42.9275 19.5029 42.5758 19.8546C42.2242 20.2062 41.7473 20.4037 41.25 20.4037ZM3.75 20.4037C3.25272 20.4037 2.77581 20.2062 2.42417 19.8546C2.07254 19.5029 1.875 19.026 1.875 18.5287C1.875 12.2681 4.3125 6.3825 8.73938 1.95562C9.09095 1.60405 9.56779 1.40653 10.065 1.40653C10.5622 1.40653 11.039 1.60405 11.3906 1.95562C11.7422 2.3072 11.9397 2.78404 11.9397 3.28125C11.9397 3.77846 11.7422 4.2553 11.3906 4.60687C9.55684 6.43096 8.10305 8.60063 7.11338 10.9903C6.12371 13.38 5.61783 15.9422 5.625 18.5287C5.625 19.026 5.42746 19.5029 5.07583 19.8546C4.72419 20.2062 4.24728 20.4037 3.75 20.4037ZM40.0856 31.7119C38.6869 30.5319 37.563 29.0604 36.7925 27.4006C36.0219 25.7407 35.6235 23.9325 35.625 22.1025V16.875C35.625 10.2769 30.7238 4.815 24.375 3.9V1.875C24.375 1.37772 24.1775 0.900806 23.8258 0.549175C23.4742 0.197544 22.9973 0 22.5 0C22.0027 0 21.5258 0.197544 21.1742 0.549175C20.8225 0.900806 20.625 1.37772 20.625 1.875V3.9C14.2744 4.815 9.375 10.2769 9.375 16.875V22.1025C9.37572 23.9362 8.97531 25.7478 8.20184 27.4104C7.42836 29.073 6.30056 30.5463 4.8975 31.7269C4.39042 32.164 4.02901 32.7456 3.86165 33.3938C3.69429 34.042 3.72898 34.7259 3.96107 35.3539C4.19316 35.9818 4.61158 36.5239 5.16028 36.9074C5.70898 37.291 6.36178 37.4977 7.03125 37.5H37.9688C39.7781 37.5 41.25 36.0281 41.25 34.2188C41.25 33.2588 40.8319 32.3512 40.0856 31.7119ZM22.5 45C24.12 44.9978 25.6898 44.4371 26.9446 43.4125C28.1995 42.3878 29.0627 40.9619 29.3888 39.375H15.6113C15.9373 40.9619 16.8005 42.3878 18.0554 43.4125C19.3102 44.4371 20.88 44.9978 22.5 45Z" fill="#1E1E1E"/>
</g>
<defs>
<clipPath id="clip0_17_331">
<rect width="45" height="45" fill="white"/>
</clipPath>
</defs>
</svg>
