<svg width="119" height="119" viewBox="0 0 119 119" fill="none" xmlns="http://www.w3.org/2000/svg">
<path d="M78.5361 83.3981L83.9778 74.5679L93.7981 71.2187L94.886 60.9045L102.274 53.6309L98.7617 43.8678L102.274 34.1044L94.8863 26.8308L93.7983 16.5168L83.978 13.1676L78.5363 4.33722L68.2435 5.57998L59.5 0L50.7566 5.58045L40.464 4.33769L35.0223 13.1679L25.202 16.5171L24.114 26.831L16.7256 34.1047L20.2384 43.868L16.7256 53.6313L24.1138 60.9048L25.2018 71.2189L35.0221 74.5681L40.4638 83.3983L50.7566 82.1558L59.5 87.736L68.2435 82.1558L78.5361 83.3981ZM29.4179 43.868C29.4179 27.2808 42.9128 13.7859 59.5 13.7859C76.0873 13.7859 89.5822 27.2808 89.5822 43.868C89.5822 60.4553 76.0873 73.9501 59.5 73.9501C42.9128 73.9501 29.4179 60.4553 29.4179 43.868Z" fill="white" fill-opacity="0.75"/>
<path d="M59.5 20.7629C46.7598 20.7629 36.3949 31.1278 36.3949 43.868C36.3949 56.6082 46.7598 66.9731 59.5 66.9731C72.2402 66.9731 82.6051 56.6082 82.6051 43.868C82.6051 31.1278 72.2402 20.7629 59.5 20.7629ZM49.1105 89.382L36.8665 90.8602L30.3975 80.3624L28.1984 79.6126L18.7125 109.262L35.7897 108.323L49.1505 119L57.0129 94.4256L49.1105 89.382ZM88.6025 80.3626L82.1333 90.8602L69.8895 89.382L61.9872 94.4256L69.8495 119L83.2103 108.323L100.287 109.262L90.8017 79.6126L88.6025 80.3626Z" fill="white" fill-opacity="0.99"/>
</svg>
