<svg width="93" height="65" viewBox="0 0 93 65" fill="none" xmlns="http://www.w3.org/2000/svg">
<path d="M72.3452 25.0093C73.0876 25.2628 73.8953 24.8665 74.1489 24.1238L79.142 9.50117C79.9015 7.27691 78.7098 4.84943 76.4856 4.08993L27.5417 -12.6226C25.3174 -13.3821 22.8899 -12.1904 22.1304 -9.96616L1.3775 50.8103C0.617996 53.0346 1.80967 55.4621 4.03393 56.2216L52.9778 72.9341C55.2021 73.6936 57.6296 72.5019 58.3891 70.2777L61.7716 60.3716C62.0252 59.629 61.6286 58.8214 60.8861 58.5679C60.1437 58.3144 59.336 58.7107 59.0824 59.4534L55.6999 69.3594C55.4467 70.1008 54.6375 70.498 53.8961 70.2449L4.9522 53.5324C4.21078 53.2792 3.81356 52.47 4.06672 51.7286L24.8196 -9.04789C25.0728 -9.78931 25.882 -10.1865 26.6234 -9.93337L75.5673 6.77915C76.3087 7.03232 76.7059 7.84148 76.4528 8.5829L71.4597 23.2056C71.2061 23.9482 71.6027 24.7558 72.3452 25.0093Z" fill="white" fill-opacity="0.75"/>
<path d="M49.5342 2.99455C42.7131 0.665403 35.2689 4.31986 32.9397 11.1409C31.7314 14.6796 32.134 18.3855 33.753 21.4583C33.7815 21.5215 33.8136 21.583 33.8515 21.6421C35.365 24.4078 37.8744 26.6386 41.086 27.7352C44.2976 28.8319 47.6473 28.6016 50.5363 27.3393C50.6017 27.3156 50.6653 27.2872 50.7266 27.2542C53.8871 25.8134 56.4723 23.1276 57.6806 19.589C60.0097 12.7679 56.3553 5.3237 49.5342 2.99455ZM42.0044 25.0462C39.8088 24.2965 38.0337 22.8688 36.83 21.0771C38.7273 19.3851 41.3801 18.8275 43.8409 19.6677C46.3017 20.508 48.0595 22.5716 48.5257 25.0707C46.4774 25.752 44.2 25.7959 42.0044 25.0462ZM43.3424 14.0925L43.6409 13.2185C44.0459 12.0323 45.3406 11.3967 46.5269 11.8018C47.7131 12.2068 48.3487 13.5015 47.9436 14.6878L47.6452 15.5618C47.2401 16.748 45.9454 17.3836 44.7592 16.9785C43.573 16.5735 42.9374 15.2787 43.3424 14.0925ZM51.1411 23.7644C50.6576 21.9713 49.6774 20.3512 48.3134 19.0909C49.2262 18.4887 49.9545 17.5926 50.3344 16.48L50.6328 15.606C51.5443 12.9368 50.1143 10.024 47.4451 9.11254C44.7759 8.20111 41.8631 9.63107 40.9516 12.3003L40.6532 13.1743C40.2733 14.2868 40.3014 15.4412 40.6553 16.4759C38.8053 16.6388 37.0389 17.321 35.5597 18.444C34.9214 16.4314 34.8958 14.2062 35.6289 12.0592C37.4517 6.72097 43.2777 3.86096 48.6159 5.68378C53.9542 7.50659 56.8142 13.3325 54.9914 18.6708C54.2583 20.8177 52.8771 22.5626 51.1411 23.7644ZM39.1643 57.107L31.9034 54.6277C31.1609 54.3741 30.3532 54.7705 30.0996 55.5132C29.8461 56.2558 30.2426 57.0634 30.9851 57.3169L38.246 59.7962C38.9885 60.0498 39.7962 59.6534 40.0498 58.9108C40.3034 58.1681 39.9068 57.3605 39.1643 57.107ZM41.7355 49.5772L22.642 43.0575C21.8995 42.8039 21.0918 43.2003 20.8382 43.9429C20.5846 44.6856 20.9812 45.4932 21.7237 45.7467L40.8172 52.2664C41.5597 52.5199 42.3674 52.1236 42.6209 51.3809C42.8745 50.6383 42.478 49.8307 41.7355 49.5772ZM44.3066 42.0473L25.2131 35.5276C24.4706 35.2741 23.6629 35.6705 23.4094 36.4131C23.1558 37.1557 23.5523 37.9633 24.2948 38.2169L43.3883 44.7366C44.1308 44.9901 44.9385 44.5937 45.1921 43.8511C45.4457 43.1085 45.0491 42.3009 44.3066 42.0473ZM22.8574 26.7554C22.6903 26.4174 22.3966 26.1591 22.0401 26.0364C21.6863 25.9156 21.2903 25.941 20.9549 26.1057C20.6194 26.2704 20.3571 26.5682 20.2363 26.9218C20.1156 27.2755 20.1409 27.6715 20.3057 28.007C20.4728 28.3444 20.766 28.6025 21.1218 28.7256C21.4768 28.8468 21.8715 28.8209 22.2082 28.6566C22.5437 28.492 22.8062 28.1942 22.9269 27.8406C23.0477 27.4869 23.0222 27.0909 22.8574 26.7554ZM20.2863 34.2852C20.1189 33.9474 19.8253 33.6892 19.4689 33.5662C19.1152 33.4454 18.7206 33.4713 18.3838 33.6356C18.0483 33.8003 17.7859 34.0981 17.6652 34.4517C17.5444 34.8053 17.5697 35.2013 17.7345 35.5369C17.9017 35.8742 18.1948 36.1323 18.5507 36.2554C18.9056 36.3766 19.3003 36.3508 19.637 36.1865C19.9725 36.0218 20.235 35.724 20.3558 35.3704C20.4765 35.0168 20.4511 34.6207 20.2863 34.2852ZM17.7151 41.815C17.5477 41.4773 17.2541 41.219 16.8978 41.096C16.544 40.9752 16.1494 41.0012 15.8126 41.1654C15.4771 41.3301 15.2148 41.6279 15.094 41.9815C14.9733 42.3351 14.9986 42.7311 15.1634 43.0667C15.3303 43.4043 15.6235 43.6624 15.9795 43.7853C16.3345 43.9065 16.7305 43.8811 17.0659 43.7163C17.4014 43.5516 17.6638 43.2539 17.7846 42.9002C17.9053 42.5466 17.8799 42.1506 17.7151 41.815ZM46.8778 34.5175L27.7843 27.9978C27.0418 27.7443 26.2341 28.1406 25.9805 28.8833C25.7269 29.6259 26.1235 30.4335 26.866 30.687L45.9595 37.2067C46.702 37.4603 47.5097 37.0639 47.7633 36.3213C48.0168 35.5786 47.6203 34.7711 46.8778 34.5175ZM83.5441 26.0663C82.4953 24.866 81.0419 24.146 79.4513 24.0388C77.861 23.9317 76.3239 24.4503 75.1238 25.4992L48.1955 49.0289C48.0479 49.1579 47.9286 49.3161 47.845 49.4934L43.011 59.7554C42.9259 59.9362 42.8799 60.133 42.876 60.3328C42.8721 60.5326 42.9103 60.731 42.9883 60.915C43.0662 61.099 43.1821 61.2646 43.3284 61.4008C43.4746 61.537 43.6479 61.6408 43.837 61.7055C44.124 61.8036 44.4348 61.8073 44.724 61.7159L55.5414 58.3015C55.7283 58.2425 55.901 58.1455 56.0486 58.0164L82.9768 34.4866C85.4547 32.3216 85.7092 28.5442 83.5441 26.0663ZM46.9656 58.0284L49.4899 52.6698L52.6143 56.2454L46.9656 58.0284ZM55.2488 54.9416L51.1353 50.2339L72.7446 31.3519L76.8581 36.0595L55.2488 54.9416ZM81.1071 32.3467L78.9978 34.1898L74.8843 29.4821L76.9935 27.639C77.302 27.3679 77.6612 27.1608 78.0503 27.0295C78.4394 26.8982 78.8507 26.8454 79.2603 26.8741C79.6701 26.9005 80.0706 27.008 80.4386 27.1903C80.8066 27.3726 81.1347 27.6261 81.4041 27.9361C81.6751 28.2446 81.8823 28.6038 82.0136 28.9929C82.1449 29.3819 82.1977 29.7932 82.169 30.2028C82.1425 30.6126 82.0351 31.0131 81.8528 31.3811C81.6705 31.7491 81.4171 32.0773 81.1071 32.3467Z" fill="white"/>
</svg>
