<svg width="65" height="65" viewBox="0 0 65 65" fill="none" xmlns="http://www.w3.org/2000/svg">
<path d="M44.8357 34.4989L43.9258 34.4887V31.0934C46.1423 30.3073 47.7344 28.1903 47.7344 25.7065C47.7344 24.6548 46.8818 23.8029 45.8301 23.8029C44.7784 23.8029 43.9258 24.6565 43.9258 25.7081C43.9258 26.1426 43.7779 26.5422 43.5321 26.863C42.9359 25.1602 41.7018 23.7556 40.1172 22.9359C40.0662 22.4614 40.4064 20.4039 39.0361 18.12L40.0673 17.0888C40.811 16.3452 40.811 15.1394 40.0673 14.3957C39.3237 13.6522 38.1179 13.6522 37.3742 14.3957L36.326 15.444C35.1649 14.766 33.8446 14.4087 32.5001 14.4087C31.1556 14.4087 29.8352 14.766 28.6741 15.444L27.6259 14.3957C26.8823 13.6522 25.6765 13.6522 24.9328 14.3957C24.1891 15.1393 24.1891 16.3451 24.9328 17.0888L25.9641 18.12C24.5955 20.4011 24.9361 22.4418 24.8829 22.9359C23.2341 23.7889 21.9635 25.2745 21.3976 27.0708C21.0422 26.7245 20.8204 26.2415 20.8204 25.7065C20.8204 24.6548 19.9678 23.8029 18.9161 23.8029C17.8645 23.8029 17.0118 24.6565 17.0118 25.7081C17.0118 28.2845 18.7265 30.4671 21.0743 31.177V34.4861L19.9104 34.499C17.2621 34.5283 15.1074 36.707 15.1074 39.3555C15.1074 40.4071 15.96 41.2598 17.0117 41.2598C18.0634 41.2598 18.916 40.4071 18.916 39.3555C18.916 38.7838 19.381 38.3136 19.9526 38.3072L21.0742 38.2948C21.1127 38.7863 20.8542 40.8764 21.9223 43.483C18.6805 45.1976 18.9834 48.6307 18.9764 48.6553C18.9802 48.9054 19.0332 49.1522 19.1324 49.3818C19.2316 49.6114 19.3751 49.8192 19.5546 49.9933C19.7342 50.1674 19.9462 50.3044 20.1787 50.3966C20.4112 50.4887 20.6596 50.5341 20.9097 50.5303C21.9612 50.5141 22.8008 49.6487 22.7847 48.597C22.7886 48.5838 22.6317 47.1847 23.9578 46.744C28.4898 51.846 36.4066 51.8732 40.9753 46.8193C41.1595 46.9055 41.3271 47.0237 41.4701 47.1684C42.064 47.7718 41.9514 48.5301 41.9614 48.5969C41.9452 49.6595 42.8019 50.5303 43.8661 50.5303C44.9042 50.5303 45.7535 49.6968 45.7695 48.655C45.7625 48.6289 46.0189 45.3487 43.0304 43.5982C44.1528 40.9424 43.8846 38.8039 43.9258 38.2972L44.7934 38.3068C45.3651 38.3132 45.8301 38.7834 45.8301 39.3551C45.8301 40.4068 46.6827 41.2594 47.7344 41.2594C48.7861 41.2594 49.6387 40.4068 49.6387 39.3551C49.6387 36.707 47.484 34.5283 44.8357 34.4989ZM36.3086 22.0264V22.1533H28.6914V22.0264C28.6914 19.9263 30.3999 18.2178 32.5 18.2178C34.6001 18.2178 36.3086 19.9263 36.3086 22.0264ZM24.8828 39.165V29.1774C24.8828 27.4044 26.3253 25.9619 28.0983 25.9619H30.4688V46.5051C27.252 45.6136 24.8828 42.6617 24.8828 39.165ZM34.2773 46.5707V25.9619H36.9017C38.6747 25.9619 40.1172 27.4044 40.1172 29.1774V39.165C40.1172 42.7531 37.6227 45.7677 34.2773 46.5707Z" fill="white"/>
<path opacity="0.75" d="M63.0957 30.5957H62.3351C61.3892 15.6242 49.3758 3.6108 34.4043 2.66487V1.9043C34.4043 0.852617 33.5517 0 32.5 0C31.4483 0 30.5957 0.852617 30.5957 1.9043V2.66487C15.6242 3.6108 3.6108 15.6242 2.66487 30.5957H1.9043C0.852617 30.5957 0 31.4483 0 32.5C0 33.5517 0.852617 34.4043 1.9043 34.4043H2.66487C3.6108 49.3758 15.6242 61.3892 30.5957 62.3351V63.0957C30.5957 64.1474 31.4483 65 32.5 65C33.5517 65 34.4043 64.1474 34.4043 63.0957V62.3351C49.3758 61.3892 61.3892 49.3758 62.3351 34.4043H63.0957C64.1474 34.4043 65 33.5517 65 32.5C65 31.4483 64.1474 30.5957 63.0957 30.5957ZM34.4043 58.519V57.2559C34.4043 56.2042 33.5517 55.3516 32.5 55.3516C31.4483 55.3516 30.5957 56.2042 30.5957 57.2559V58.519C17.7249 57.5861 7.41394 47.2751 6.48096 34.4043H7.74414C8.79582 34.4043 9.64844 33.5517 9.64844 32.5C9.64844 31.4483 8.79582 30.5957 7.74414 30.5957H6.48096C7.41394 17.7249 17.7249 7.41394 30.5957 6.48096V7.74414C30.5957 8.79582 31.4483 9.64844 32.5 9.64844C33.5517 9.64844 34.4043 8.79582 34.4043 7.74414V6.48096C47.2751 7.41394 57.5861 17.7249 58.519 30.5957H57.2559C56.2042 30.5957 55.3516 31.4483 55.3516 32.5C55.3516 33.5517 56.2042 34.4043 57.2559 34.4043H58.519C57.5861 47.2751 47.2751 57.5861 34.4043 58.519Z" fill="white"/>
</svg>
