<svg width="60" height="60" viewBox="0 0 60 60" fill="none" xmlns="http://www.w3.org/2000/svg">
<path d="M41.3868 31.8452L40.5469 31.8358V28.7016C42.5929 27.976 44.0625 26.0219 44.0625 23.7291C44.0625 22.7583 43.2755 21.972 42.3047 21.972C41.3339 21.972 40.5469 22.7598 40.5469 23.7306C40.5469 24.1316 40.4104 24.5005 40.1835 24.7967C39.6332 23.2248 38.494 21.9283 37.0312 21.1716C36.9841 20.7337 37.2982 18.8344 36.0333 16.7262L36.9852 15.7743C37.6717 15.0879 37.6717 13.9749 36.9852 13.2884C36.2988 12.602 35.1858 12.602 34.4993 13.2884L33.5317 14.256C32.4599 13.6302 31.2411 13.3004 30.0001 13.3004C28.759 13.3004 27.5402 13.6302 26.4684 14.256L25.5008 13.2884C24.8145 12.602 23.7014 12.602 23.0149 13.2884C22.3284 13.9748 22.3284 15.0878 23.0149 15.7743L23.9668 16.7262C22.7036 18.8318 23.018 20.7155 22.9689 21.1716C21.4468 21.959 20.274 23.3303 19.7516 24.9885C19.4236 24.6688 19.2189 24.2229 19.2189 23.7291C19.2189 22.7583 18.4318 21.972 17.4611 21.972C16.4903 21.972 15.7032 22.7598 15.7032 23.7306C15.7032 26.1088 17.286 28.1235 19.4532 28.7788V31.8333L18.3789 31.8453C15.9342 31.8723 13.9453 33.8834 13.9453 36.3282C13.9453 37.2989 14.7323 38.086 15.7031 38.086C16.6739 38.086 17.4609 37.2989 17.4609 36.3282C17.4609 35.8005 17.8902 35.3664 18.4178 35.3605L19.4531 35.3491C19.4886 35.8028 19.25 37.7321 20.2359 40.1382C17.2436 41.7209 17.5232 44.8899 17.5167 44.9126C17.5202 45.1434 17.5691 45.3713 17.6607 45.5832C17.7523 45.7952 17.8847 45.987 18.0504 46.1477C18.2161 46.3084 18.4119 46.4349 18.6265 46.52C18.8411 46.605 19.0704 46.6469 19.3012 46.6434C20.2719 46.6285 21.0469 45.8296 21.032 44.8588C21.0356 44.8466 20.8908 43.5551 22.1149 43.1484C26.2983 47.8579 33.6061 47.883 37.8233 43.2178C37.9934 43.2974 38.1481 43.4066 38.2801 43.5401C38.8283 44.0971 38.7244 44.7971 38.7336 44.8587C38.7186 45.8396 39.5094 46.6434 40.4918 46.6434C41.45 46.6434 42.234 45.874 42.2488 44.9124C42.2423 44.8882 42.4789 41.8604 39.7204 40.2446C40.7564 37.793 40.5089 35.819 40.5469 35.3513L41.3477 35.3602C41.8754 35.3661 42.3047 35.8001 42.3047 36.3278C42.3047 37.2986 43.0917 38.0856 44.0625 38.0856C45.0333 38.0856 45.8203 37.2986 45.8203 36.3278C45.8203 33.8834 43.8314 31.8723 41.3868 31.8452ZM33.5156 20.3321V20.4493H26.4844V20.3321C26.4844 18.3936 28.0615 16.8164 30 16.8164C31.9385 16.8164 33.5156 18.3936 33.5156 20.3321ZM22.9688 36.1524V26.933C22.9688 25.2964 24.3002 23.9649 25.9369 23.9649H28.125V42.9278C25.1557 42.1049 22.9688 39.3801 22.9688 36.1524ZM31.6406 42.9884V23.9649H34.0631C35.6998 23.9649 37.0312 25.2964 37.0312 26.933V36.1524C37.0312 39.4645 34.7286 42.2472 31.6406 42.9884Z" fill="white"/>
<path opacity="0.75" d="M58.2422 28.2422H57.5401C56.667 14.4224 45.5776 3.33305 31.7578 2.45988V1.75781C31.7578 0.787031 30.9708 0 30 0C29.0292 0 28.2422 0.787031 28.2422 1.75781V2.45988C14.4224 3.33305 3.33305 14.4224 2.45988 28.2422H1.75781C0.787031 28.2422 0 29.0292 0 30C0 30.9708 0.787031 31.7578 1.75781 31.7578H2.45988C3.33305 45.5776 14.4224 56.667 28.2422 57.5401V58.2422C28.2422 59.213 29.0292 60 30 60C30.9708 60 31.7578 59.213 31.7578 58.2422V57.5401C45.5776 56.667 56.667 45.5776 57.5401 31.7578H58.2422C59.213 31.7578 60 30.9708 60 30C60 29.0292 59.213 28.2422 58.2422 28.2422ZM31.7578 54.0176V52.8516C31.7578 51.8808 30.9708 51.0938 30 51.0938C29.0292 51.0938 28.2422 51.8808 28.2422 52.8516V54.0176C16.3615 53.1564 6.84363 43.6385 5.98242 31.7578H7.14844C8.11922 31.7578 8.90625 30.9708 8.90625 30C8.90625 29.0292 8.11922 28.2422 7.14844 28.2422H5.98242C6.84363 16.3615 16.3615 6.84363 28.2422 5.98242V7.14844C28.2422 8.11922 29.0292 8.90625 30 8.90625C30.9708 8.90625 31.7578 8.11922 31.7578 7.14844V5.98242C43.6385 6.84363 53.1564 16.3615 54.0176 28.2422H52.8516C51.8808 28.2422 51.0938 29.0292 51.0938 30C51.0938 30.9708 51.8808 31.7578 52.8516 31.7578H54.0176C53.1564 43.6385 43.6385 53.1564 31.7578 54.0176Z" fill="white"/>
</svg>
