<svg width="52" height="60" viewBox="0 0 52 60" fill="none" xmlns="http://www.w3.org/2000/svg">
<path d="M0 0V44.7159H35.7941V0H0ZM16.1653 40H5.86881C5.28474 40 4.81326 39.5366 4.81326 38.9655C4.81326 38.3945 5.28474 37.931 5.86881 37.931H16.1653C16.7479 37.931 17.2208 38.3945 17.2208 38.9655C17.2208 39.5366 16.7479 40 16.1653 40ZM29.9267 40H19.6302C19.0462 40 18.5747 39.5366 18.5747 38.9655C18.5747 38.3945 19.0462 37.931 19.6302 37.931H29.9267C30.5093 37.931 30.9822 38.3945 30.9822 38.9655C30.9822 39.5366 30.5093 40 29.9267 40ZM29.9267 34.7545H5.86881C5.73014 34.7547 5.5928 34.728 5.46465 34.6761C5.3365 34.6242 5.22007 34.548 5.12201 34.4519C5.02396 34.3558 4.94622 34.2417 4.89324 34.1161C4.84026 33.9905 4.81308 33.8559 4.81326 33.72C4.81326 33.149 5.28474 32.6855 5.86881 32.6855H29.9267C30.5093 32.6855 30.9822 33.149 30.9822 33.72C30.9822 34.2924 30.5093 34.7545 29.9267 34.7545ZM4.81326 28.4759C4.81326 27.9048 5.28474 27.4414 5.86881 27.4414H16.1653C16.7479 27.4414 17.2208 27.9048 17.2208 28.4759C17.2208 29.0469 16.7479 29.5104 16.1653 29.5104H5.86881C5.28474 29.5104 4.81326 29.0469 4.81326 28.4759ZM29.9267 29.5104H19.6302C19.0462 29.5104 18.5747 29.0469 18.5747 28.4759C18.5747 27.9048 19.0462 27.4414 19.6302 27.4414H29.9267C30.5093 27.4414 30.9822 27.9048 30.9822 28.4759C30.9822 29.0469 30.5093 29.5104 29.9267 29.5104ZM30.9822 22.3586C30.9822 22.9297 30.5093 23.3931 29.9267 23.3931H5.86881C5.28474 23.3931 4.81326 22.9297 4.81326 22.3586V5.75172C4.81326 5.17931 5.28474 4.71724 5.86881 4.71724H29.9267C30.5093 4.71724 30.9822 5.17931 30.9822 5.75172V22.3586Z" fill="white"/>
<path opacity="0.75" d="M37.9051 15.2841V20H45.5205C46.1046 20 46.5761 20.4634 46.5761 21.0345V25.6386C46.5761 26.2096 46.1046 26.6731 45.5205 26.6731C44.9379 26.6731 44.465 26.2096 44.465 25.6386V22.069H37.9051V45.7503C37.9051 46.3228 37.4337 46.7848 36.8496 46.7848H22.5182V53.2138H26.3885C26.9711 53.2138 27.444 53.6772 27.444 54.2483C27.444 54.8207 26.9711 55.2827 26.3885 55.2827H21.4626C20.88 55.2827 20.4071 54.8207 20.4071 54.2483V46.7848H15.5952V60H51.3893V15.2841H37.9051ZM46.5761 54.2483C46.5761 54.8207 46.1046 55.2827 45.5205 55.2827H29.8535C29.2708 55.2827 28.7979 54.8207 28.7979 54.2483C28.7979 53.6772 29.2708 53.2138 29.8535 53.2138H44.465V29.0345C44.465 28.4621 44.9379 28 45.5205 28C46.1046 28 46.5761 28.4621 46.5761 29.0345V54.2483ZM26.5954 21.3241H6.92432V7.74482L26.5954 21.3241ZM28.8711 6.78619V20.3641L9.20006 6.78619H28.8711Z" fill="white"/>
</svg>
