<svg width="49" height="57" viewBox="0 0 49 57" fill="none" xmlns="http://www.w3.org/2000/svg">
<path d="M0 0V41.9494H33.5796V0H0ZM15.1651 37.5253H5.50572C4.95778 37.5253 4.51548 37.0905 4.51548 36.5548C4.51548 36.0191 4.95778 35.5843 5.50572 35.5843H15.1651C15.7118 35.5843 16.1554 36.0191 16.1554 36.5548C16.1554 37.0905 15.7118 37.5253 15.1651 37.5253ZM28.0752 37.5253H18.4158C17.8678 37.5253 17.4255 37.0905 17.4255 36.5548C17.4255 36.0191 17.8678 35.5843 18.4158 35.5843H28.0752C28.6218 35.5843 29.0654 36.0191 29.0654 36.5548C29.0654 37.0905 28.6218 37.5253 28.0752 37.5253ZM28.0752 32.6043H5.50572C5.37563 32.6045 5.24678 32.5795 5.12656 32.5308C5.00634 32.4821 4.89711 32.4106 4.80512 32.3204C4.71314 32.2303 4.6402 32.1232 4.5905 32.0054C4.5408 31.8876 4.51531 31.7613 4.51548 31.6338C4.51548 31.0981 4.95778 30.6633 5.50572 30.6633H28.0752C28.6218 30.6633 29.0654 31.0981 29.0654 31.6338C29.0654 32.1708 28.6218 32.6043 28.0752 32.6043ZM4.51548 26.7141C4.51548 26.1784 4.95778 25.7436 5.50572 25.7436H15.1651C15.7118 25.7436 16.1554 26.1784 16.1554 26.7141C16.1554 27.2498 15.7118 27.6846 15.1651 27.6846H5.50572C4.95778 27.6846 4.51548 27.2498 4.51548 26.7141ZM28.0752 27.6846H18.4158C17.8678 27.6846 17.4255 27.2498 17.4255 26.7141C17.4255 26.1784 17.8678 25.7436 18.4158 25.7436H28.0752C28.6218 25.7436 29.0654 26.1784 29.0654 26.7141C29.0654 27.2498 28.6218 27.6846 28.0752 27.6846ZM29.0654 20.9753C29.0654 21.5111 28.6218 21.9458 28.0752 21.9458H5.50572C4.95778 21.9458 4.51548 21.5111 4.51548 20.9753V5.39588C4.51548 4.85888 4.95778 4.4254 5.50572 4.4254H28.0752C28.6218 4.4254 29.0654 4.85888 29.0654 5.39588V20.9753Z" fill="white"/>
<path opacity="0.75" d="M35.56 14.3385V18.7626H42.7042C43.2522 18.7626 43.6945 19.1974 43.6945 19.7331V24.0524C43.6945 24.5881 43.2522 25.0229 42.7042 25.0229C42.1576 25.0229 41.714 24.5881 41.714 24.0524V20.7036H35.56V42.9199C35.56 43.4569 35.1177 43.8904 34.5698 43.8904H21.125V49.9216H24.7559C25.3025 49.9216 25.7461 50.3564 25.7461 50.8921C25.7461 51.4291 25.3025 51.8625 24.7559 51.8625H20.1348C19.5882 51.8625 19.1445 51.4291 19.1445 50.8921V43.8904H14.6304V56.2879H48.21V14.3385H35.56ZM43.6945 50.8921C43.6945 51.4291 43.2522 51.8625 42.7042 51.8625H28.0065C27.4599 51.8625 27.0163 51.4291 27.0163 50.8921C27.0163 50.3564 27.4599 49.9216 28.0065 49.9216H41.714V27.2382C41.714 26.7012 42.1576 26.2677 42.7042 26.2677C43.2522 26.2677 43.6945 26.7012 43.6945 27.2382V50.8921ZM24.95 20.0049H6.49591V7.26568L24.95 20.0049ZM27.0849 6.36636V19.1043L8.63086 6.36636H27.0849Z" fill="white"/>
</svg>
