<svg width="61" height="48" viewBox="0 0 61 48" fill="none" xmlns="http://www.w3.org/2000/svg">
<path fill-rule="evenodd" clip-rule="evenodd" d="M13.0648 37.7359C13.4352 37.8895 13.8324 37.9679 14.2333 37.9667C15.9149 37.9667 17.2833 36.5982 17.2833 34.9167C17.2833 34.1003 16.9661 33.3337 16.3897 32.7603L7.3627 23.7333L16.3887 14.7074C16.9651 14.133 17.2833 13.3664 17.2833 12.55C17.2833 10.8684 15.9149 9.50001 14.2333 9.50001C13.8326 9.4987 13.4357 9.57703 13.0655 9.73044C12.6953 9.88385 12.3593 10.1093 12.077 10.3937L0.894667 21.576C0.318217 22.1504 0 22.917 0 23.7333C0 24.5497 0.318217 25.3163 0.89365 25.8897L12.076 37.072C12.3583 37.3566 12.6945 37.5823 13.0648 37.7359ZM43.7167 35.9333C43.7167 37.6149 45.0851 38.9833 46.7667 38.9833C47.1674 38.9849 47.5644 38.9067 47.9347 38.7532C48.3049 38.5998 48.6408 38.3742 48.923 38.0897L60.1053 26.9074C60.6818 26.333 61 25.5664 61 24.75C61 23.9357 60.6828 23.1691 60.1063 22.5937L48.924 11.4113C48.3496 10.8349 47.5831 10.5167 46.7667 10.5167C45.0851 10.5167 43.7167 11.8851 43.7167 13.5667C43.7158 13.9673 43.7943 14.3642 43.9476 14.7343C44.101 15.1044 44.3263 15.4405 44.6103 15.723L53.6373 24.75L44.6113 33.776C44.0349 34.3504 43.7167 35.117 43.7167 35.9333Z" fill="white"/>
<path d="M21.35 47.1167C20.848 47.1159 20.354 46.9914 19.9116 46.7542C19.4692 46.517 19.0921 46.1744 18.8137 45.7567C18.5352 45.339 18.364 44.8592 18.3152 44.3596C18.2664 43.86 18.3415 43.3561 18.5338 42.8924L36.8348 2.22373C37.0666 1.6683 37.4576 1.19393 37.9586 0.860473C38.4596 0.527012 39.0482 0.349389 39.65 0.350008C40.152 0.350801 40.646 0.475309 41.0884 0.712517C41.5308 0.949724 41.9079 1.29232 42.1863 1.70998C42.4648 2.12764 42.636 2.6075 42.6848 3.10709C42.7336 3.60668 42.6585 4.1106 42.4662 4.57426L24.1651 45.243C23.9334 45.7984 23.5424 46.2728 23.0414 46.6062C22.5404 46.9397 21.9518 47.1173 21.35 47.1167Z" fill="white" fill-opacity="0.75"/>
</svg>
