<svg width="76" height="59" viewBox="0 0 76 59" fill="none" xmlns="http://www.w3.org/2000/svg">
<path fill-rule="evenodd" clip-rule="evenodd" d="M16.2775 46.5791C16.7389 46.7705 17.2338 46.8682 17.7333 46.8667C19.8284 46.8667 21.5333 45.1617 21.5333 43.0667C21.5333 42.0495 21.1381 41.0945 20.4199 40.3801L9.1732 29.1333L20.4187 17.8879C21.1369 17.1722 21.5333 16.2171 21.5333 15.2C21.5333 13.1049 19.8284 11.4 17.7333 11.4C17.2341 11.3984 16.7395 11.496 16.2783 11.6871C15.8171 11.8782 15.3985 12.1591 15.0467 12.5134L1.11467 26.4455C0.396467 27.1611 0 28.1162 0 29.1333C0 30.1505 0.396467 31.1055 1.1134 31.8199L15.0455 45.752C15.3973 46.1066 15.8161 46.3878 16.2775 46.5791ZM54.4667 44.3333C54.4667 46.4284 56.1716 48.1333 58.2667 48.1333C58.7659 48.1353 59.2606 48.0378 59.7219 47.8466C60.1831 47.6555 60.6017 47.3745 60.9533 47.0199L74.8853 33.0879C75.6035 32.3722 76 31.4171 76 30.4C76 29.3854 75.6048 28.4303 74.8866 27.7134L60.9545 13.7813C60.2389 13.0631 59.2838 12.6667 58.2667 12.6667C56.1716 12.6667 54.4667 14.3716 54.4667 16.4667C54.4655 16.9658 54.5633 17.4603 54.7544 17.9214C54.9456 18.3826 55.2262 18.8012 55.5801 19.1533L66.8268 30.4L55.5813 41.6455C54.8631 42.3611 54.4667 43.3162 54.4667 44.3333Z" fill="white"/>
<path d="M26.6 58.2667C25.9746 58.2657 25.3591 58.1106 24.8079 57.815C24.2567 57.5195 23.7869 57.0926 23.44 56.5723C23.0931 56.0519 22.8798 55.4541 22.819 54.8316C22.7582 54.2092 22.8517 53.5814 23.0913 53.0037L45.8926 2.33447C46.1813 1.64246 46.6685 1.05145 47.2927 0.635991C47.9169 0.220532 48.6502 -0.00076934 49.4 2.00956e-06C50.0254 0.000989743 50.6409 0.156115 51.1921 0.451652C51.7433 0.747189 52.2131 1.17403 52.56 1.69439C52.9069 2.21476 53.1202 2.81261 53.181 3.43505C53.2418 4.05749 53.1483 4.68533 52.9087 5.263L30.1074 55.9322C29.8187 56.6242 29.3315 57.2152 28.7073 57.6307C28.0831 58.0461 27.3498 58.2674 26.6 58.2667Z" fill="white" fill-opacity="0.75"/>
</svg>
