<svg width="60" height="60" viewBox="0 0 60 60" fill="none" xmlns="http://www.w3.org/2000/svg">
<path fill-rule="evenodd" clip-rule="evenodd" d="M44.2857 35.7143C47.4371 35.7143 50 33.1514 50 30C50 26.8486 47.4371 24.2857 44.2857 24.2857C41.1343 24.2857 38.5714 26.8486 38.5714 30C38.5714 33.1514 41.1343 35.7143 44.2857 35.7143ZM10 30C10 26.8486 12.5629 24.2857 15.7143 24.2857C18.8657 24.2857 21.4286 26.8486 21.4286 30C21.4286 33.1514 18.8657 35.7143 15.7143 35.7143C12.5629 35.7143 10 33.1514 10 30ZM38.5714 44.2857C38.5714 41.1343 41.1343 38.5714 44.2857 38.5714C47.4371 38.5714 50 41.1343 50 44.2857C50 47.4371 47.4371 50 44.2857 50C41.1343 50 38.5714 47.4371 38.5714 44.2857ZM10 44.2857C10 41.1343 12.5629 38.5714 15.7143 38.5714C18.8657 38.5714 21.4286 41.1343 21.4286 44.2857C21.4286 47.4371 18.8657 50 15.7143 50C12.5629 50 10 47.4371 10 44.2857Z" fill="white"/>
<path d="M30 38.5714C26.8486 38.5714 24.2857 41.1343 24.2857 44.2857C24.2857 47.4371 26.8486 50 30 50C33.1514 50 35.7143 47.4371 35.7143 44.2857C35.7143 41.1343 33.1514 38.5714 30 38.5714Z" fill="white" fill-opacity="0.75"/>
<path d="M30 24.2857C26.8486 24.2857 24.2857 26.8486 24.2857 30C24.2857 33.1514 26.8486 35.7143 30 35.7143C33.1514 35.7143 35.7143 33.1514 35.7143 30C35.7143 26.8486 33.1514 24.2857 30 24.2857Z" fill="white" fill-opacity="0.75"/>
<path d="M30 10C26.8486 10 24.2857 12.5629 24.2857 15.7143C24.2857 18.8657 26.8486 21.4286 30 21.4286C33.1514 21.4286 35.7143 18.8657 35.7143 15.7143C35.7143 12.5629 33.1514 10 30 10Z" fill="white" fill-opacity="0.75"/>
<path d="M44.2857 21.4286C47.4371 21.4286 50 18.8657 50 15.7143C50 12.5629 47.4371 10 44.2857 10C41.1343 10 38.5714 12.5629 38.5714 15.7143C38.5714 18.8657 41.1343 21.4286 44.2857 21.4286Z" fill="white" fill-opacity="0.75"/>
<path d="M15.7143 10C12.5629 10 10 12.5629 10 15.7143C10 18.8657 12.5629 21.4286 15.7143 21.4286C18.8657 21.4286 21.4286 18.8657 21.4286 15.7143C21.4286 12.5629 18.8657 10 15.7143 10Z" fill="white" fill-opacity="0.75"/>
</svg>
