<svg width="60" height="60" viewBox="0 0 60 60" fill="none" xmlns="http://www.w3.org/2000/svg">
<path d="M31.6536 33.3846C32.1019 32.4226 31.6951 31.2798 30.747 30.838C29.7989 30.3962 28.6621 30.8197 28.2138 31.7817C27.7653 32.7441 28.172 33.8864 29.1205 34.3284C30.0686 34.7702 31.205 34.3474 31.6536 33.3846Z" fill="white"/>
<path d="M26.7566 13.8016L45.6702 22.6151C46.4382 22.973 47.4023 22.5306 47.8233 21.6271C48.2443 20.7238 47.9631 19.7008 47.195 19.3429L46.0824 18.8244L46.9303 17.0049C47.3513 16.1013 47.07 15.0786 46.3019 14.7207L32.3948 8.24012C31.6269 7.88232 30.6629 8.32474 30.2419 9.22831L29.394 11.0478L28.2814 10.5294C27.5133 10.1714 26.5492 10.6141 26.1283 11.5174C25.7072 12.421 25.9885 13.4437 26.7566 13.8016Z" fill="white"/>
<path fill-rule="evenodd" clip-rule="evenodd" d="M34.7194 21.495L43.7525 25.7043L43.696 38.0369C43.6945 38.3666 43.6084 38.7008 43.4475 39.0008C43.2866 39.3008 43.0576 39.5543 42.7869 39.7321L21.2978 53.8496L29.1952 37.7618C31.1287 37.84 33.4115 36.8001 34.4055 34.6669C35.6666 31.9606 34.0624 28.8332 31.7619 27.7612L34.7194 21.495Z" fill="white"/>
<path d="M18.5779 52.4212L26.0845 36.3122C24.781 34.8821 24.0787 32.5693 25.0728 30.4361C26.3339 27.7297 29.4613 26.6892 31.7619 27.7612L34.7194 21.495L25.6864 17.2857L16.2253 25.226C15.9708 25.4395 15.7679 25.7221 15.6403 26.0407C15.5127 26.3593 15.4658 26.7006 15.505 27.0245L18.5779 52.4212Z" fill="white" fill-opacity="0.75"/>
</svg>
