<svg width="60" height="60" viewBox="0 0 60 60" fill="none" xmlns="http://www.w3.org/2000/svg">
<path d="M38.3503 31.3532L37.7344 31.3463V29.0479C39.2348 28.5158 40.3125 27.0828 40.3125 25.4014C40.3125 24.6895 39.7353 24.1128 39.0234 24.1128C38.3115 24.1128 37.7344 24.6906 37.7344 25.4025C37.7344 25.6966 37.6343 25.9671 37.4679 26.1843C37.0643 25.0316 36.2289 24.0808 35.1562 23.5259C35.1217 23.2047 35.352 21.8119 34.4244 20.2659L35.1225 19.5679C35.6259 19.0645 35.6259 18.2483 35.1225 17.7449C34.6191 17.2415 33.8029 17.2415 33.2995 17.7449L32.5899 18.4545C31.804 17.9955 30.9102 17.7537 30 17.7537C29.0899 17.7537 28.1961 17.9955 27.4102 18.4545L26.7006 17.7449C26.1973 17.2415 25.381 17.2415 24.8776 17.7449C24.3742 18.2482 24.3742 19.0644 24.8776 19.5679L25.5757 20.2659C24.6493 21.8101 24.8798 23.1914 24.8438 23.5259C23.7277 24.1033 22.8676 25.1089 22.4845 26.325C22.244 26.0905 22.0938 25.7635 22.0938 25.4014C22.0938 24.6895 21.5167 24.1128 20.8048 24.1128C20.0929 24.1128 19.5157 24.6906 19.5157 25.4025C19.5157 27.1465 20.6764 28.624 22.2657 29.1045V31.3445L21.4778 31.3532C19.6851 31.3731 18.2266 32.8479 18.2266 34.6407C18.2266 35.3526 18.8037 35.9298 19.5156 35.9298C20.2275 35.9298 20.8047 35.3526 20.8047 34.6407C20.8047 34.2537 21.1195 33.9354 21.5064 33.9311L22.2656 33.9227C22.2917 34.2554 22.1167 35.6702 22.8397 37.4347C20.6453 38.5954 20.8503 40.9193 20.8456 40.936C20.8481 41.1052 20.884 41.2723 20.9512 41.4278C21.0183 41.5832 21.1155 41.7238 21.237 41.8417C21.3585 41.9595 21.5021 42.0523 21.6595 42.1147C21.8168 42.177 21.985 42.2078 22.1542 42.2052C22.8661 42.1943 23.4344 41.6084 23.4235 40.8965C23.4261 40.8876 23.3199 39.9405 24.2176 39.6422C27.2854 43.0958 32.6445 43.1142 35.7371 39.6931C35.8618 39.7515 35.9753 39.8315 36.0721 39.9295C36.4741 40.3379 36.3979 40.8512 36.4047 40.8964C36.3937 41.6157 36.9736 42.2052 37.694 42.2052C38.3967 42.2052 38.9716 41.641 38.9824 40.9358C38.9777 40.9181 39.1512 38.6976 37.1283 37.5127C37.888 35.7149 37.7065 34.2673 37.7344 33.9243L38.3217 33.9309C38.7086 33.9351 39.0234 34.2535 39.0234 34.6404C39.0234 35.3523 39.6006 35.9295 40.3125 35.9295C41.0244 35.9295 41.6016 35.3523 41.6016 34.6404C41.6016 32.8479 40.143 31.3731 38.3503 31.3532ZM32.5781 22.9102V22.9962H27.4219V22.9102C27.4219 21.4887 28.5784 20.3321 30 20.3321C31.4216 20.3321 32.5781 21.4887 32.5781 22.9102ZM24.8438 34.5118V27.7509C24.8438 26.5507 25.8202 25.5743 27.0204 25.5743H28.625V39.4804C26.4475 38.877 24.8438 36.8788 24.8438 34.5118ZM31.2031 39.5249V25.5743H32.9796C34.1798 25.5743 35.1562 26.5507 35.1562 27.7509V34.5118C35.1562 36.9406 33.4677 38.9813 31.2031 39.5249Z" fill="white"/>
<path opacity="0.75" d="M50.7109 28.7109H50.1961C49.5558 18.5764 41.4236 10.4442 31.2891 9.80391V9.28906C31.2891 8.57716 30.7119 8 30 8C29.2881 8 28.7109 8.57716 28.7109 9.28906V9.80391C18.5764 10.4442 10.4442 18.5764 9.80391 28.7109H9.28906C8.57716 28.7109 8 29.2881 8 30C8 30.7119 8.57716 31.2891 9.28906 31.2891H9.80391C10.4442 41.4236 18.5764 49.5558 28.7109 50.1961V50.7109C28.7109 51.4228 29.2881 52 30 52C30.7119 52 31.2891 51.4228 31.2891 50.7109V50.1961C41.4236 49.5558 49.5558 41.4236 50.1961 31.2891H50.7109C51.4228 31.2891 52 30.7119 52 30C52 29.2881 51.4228 28.7109 50.7109 28.7109ZM31.2891 47.6129V46.7578C31.2891 46.0459 30.7119 45.4688 30 45.4688C29.2881 45.4688 28.7109 46.0459 28.7109 46.7578V47.6129C19.9984 46.9813 13.0187 40.0016 12.3871 31.2891H13.2422C13.9541 31.2891 14.5312 30.7119 14.5312 30C14.5312 29.2881 13.9541 28.7109 13.2422 28.7109H12.3871C13.0187 19.9984 19.9984 13.0187 28.7109 12.3871V13.2422C28.7109 13.9541 29.2881 14.5312 30 14.5312C30.7119 14.5312 31.2891 13.9541 31.2891 13.2422V12.3871C40.0016 13.0187 46.9813 19.9984 47.6129 28.7109H46.7578C46.0459 28.7109 45.4688 29.2881 45.4688 30C45.4688 30.7119 46.0459 31.2891 46.7578 31.2891H47.6129C46.9813 40.0016 40.0016 46.9813 31.2891 47.6129Z" fill="white"/>
</svg>
