<svg width="60" height="60" viewBox="0 0 60 60" fill="none" xmlns="http://www.w3.org/2000/svg">
<path d="M12 9V40.711H37.7715V9H12ZM23.6389 37.3667H16.2255C15.805 37.3667 15.4655 37.038 15.4655 36.6331C15.4655 36.2281 15.805 35.8994 16.2255 35.8994H23.6389C24.0584 35.8994 24.3989 36.2281 24.3989 36.6331C24.3989 37.038 24.0584 37.3667 23.6389 37.3667ZM33.547 37.3667H26.1337C25.7131 37.3667 25.3737 37.038 25.3737 36.6331C25.3737 36.2281 25.7131 35.8994 26.1337 35.8994H33.547C33.9666 35.8994 34.307 36.2281 34.307 36.6331C34.307 37.038 33.9666 37.3667 33.547 37.3667ZM33.547 33.6467H16.2255C16.1257 33.6469 16.0268 33.628 15.9345 33.5911C15.8422 33.5543 15.7584 33.5003 15.6878 33.4321C15.6172 33.364 15.5612 33.2831 15.5231 33.194C15.485 33.1049 15.4654 33.0095 15.4655 32.9131C15.4655 32.5081 15.805 32.1795 16.2255 32.1795H33.547C33.9666 32.1795 34.307 32.5081 34.307 32.9131C34.307 33.319 33.9666 33.6467 33.547 33.6467ZM15.4655 29.1941C15.4655 28.7892 15.805 28.4605 16.2255 28.4605H23.6389C24.0584 28.4605 24.3989 28.7892 24.3989 29.1941C24.3989 29.5991 24.0584 29.9278 23.6389 29.9278H16.2255C15.805 29.9278 15.4655 29.5991 15.4655 29.1941ZM33.547 29.9278H26.1337C25.7131 29.9278 25.3737 29.5991 25.3737 29.1941C25.3737 28.7892 25.7131 28.4605 26.1337 28.4605H33.547C33.9666 28.4605 34.307 28.7892 34.307 29.1941C34.307 29.5991 33.9666 29.9278 33.547 29.9278ZM34.307 24.856C34.307 25.261 33.9666 25.5896 33.547 25.5896H16.2255C15.805 25.5896 15.4655 25.261 15.4655 24.856V13.0789C15.4655 12.673 15.805 12.3453 16.2255 12.3453H33.547C33.9666 12.3453 34.307 12.673 34.307 13.0789V24.856Z" fill="white"/>
<path opacity="0.75" d="M39.2914 19.839V23.1833H44.7744C45.195 23.1833 45.5344 23.512 45.5344 23.917V27.1821C45.5344 27.587 45.195 27.9157 44.7744 27.9157C44.3549 27.9157 44.0145 27.587 44.0145 27.1821V24.6506H39.2914V41.4446C39.2914 41.8506 38.952 42.1782 38.5314 42.1782H28.2129V46.7375H30.9995C31.419 46.7375 31.7595 47.0661 31.7595 47.4711C31.7595 47.877 31.419 48.2047 30.9995 48.2047H27.4529C27.0334 48.2047 26.6929 47.877 26.6929 47.4711V42.1782H23.2284V51.55H49V19.839H39.2914ZM45.5344 47.4711C45.5344 47.877 45.195 48.2047 44.7744 48.2047H33.4943C33.0748 48.2047 32.7343 47.877 32.7343 47.4711C32.7343 47.0661 33.0748 46.7375 33.4943 46.7375H44.0145V29.5903C44.0145 29.1844 44.3549 28.8567 44.7744 28.8567C45.195 28.8567 45.5344 29.1844 45.5344 29.5903V47.4711ZM31.1485 24.1224H16.9854V14.4924L31.1485 24.1224ZM32.787 13.8126V23.4416L18.6239 13.8126H32.787Z" fill="white"/>
</svg>
