<svg width="60" height="60" viewBox="0 0 60 60" fill="none" xmlns="http://www.w3.org/2000/svg">
<path fill-rule="evenodd" clip-rule="evenodd" d="M16.0344 42.4312C16.3472 42.5604 16.6827 42.6263 17.0213 42.6253C18.4416 42.6253 19.5973 41.4748 19.5973 40.0611C19.5973 39.3747 19.3294 38.7302 18.8426 38.2482L11.2185 30.659L18.8417 23.0706C19.3286 22.5877 19.5973 21.9432 19.5973 21.2568C19.5973 19.8431 18.4416 18.6926 17.0213 18.6926C16.6829 18.6915 16.3476 18.7574 16.035 18.8864C15.7223 19.0153 15.4385 19.2049 15.2001 19.4439L5.75563 28.8452C5.26876 29.3281 5 29.9726 5 30.659C5 31.3453 5.26876 31.9898 5.75477 32.4719L15.1992 41.8731C15.4377 42.1124 15.7216 42.3021 16.0344 42.4312ZM41.9227 40.9158C41.9227 42.3295 43.0784 43.48 44.4987 43.48C44.8371 43.4813 45.1725 43.4155 45.4851 43.2865C45.7978 43.1576 46.0816 42.9679 46.3199 42.7287L55.7644 33.3274C56.2512 32.8445 56.52 32.2 56.52 31.5137C56.52 30.829 56.2521 30.1846 55.7652 29.7008L46.3208 20.2995C45.8356 19.8149 45.1882 19.5474 44.4987 19.5474C43.0784 19.5474 41.9227 20.6978 41.9227 22.1116C41.9219 22.4484 41.9882 22.7821 42.1177 23.0932C42.2473 23.4044 42.4375 23.6869 42.6774 23.9245L50.3015 31.5137L42.6783 39.102C42.1914 39.585 41.9227 40.2294 41.9227 40.9158Z" fill="white"/>
<path d="M23.032 50.3179C22.608 50.3172 22.1908 50.2126 21.8172 50.0131C21.4435 49.8137 21.125 49.5257 20.8899 49.1745C20.6547 48.8234 20.5101 48.42 20.4689 48C20.4276 47.5799 20.4911 47.1563 20.6535 46.7665L36.1103 12.5753C36.3061 12.1083 36.6363 11.7095 37.0595 11.4292C37.4826 11.1488 37.9797 10.9995 38.488 11C38.912 11.0007 39.3292 11.1053 39.7028 11.3048C40.0765 11.5042 40.395 11.7922 40.6301 12.1434C40.8653 12.4945 41.0099 12.8979 41.0511 13.3179C41.0924 13.738 41.0289 14.1616 40.8665 14.5514L25.4096 48.7426C25.2139 49.2096 24.8837 49.6084 24.4605 49.8887C24.0374 50.1691 23.5403 50.3184 23.032 50.3179Z" fill="white" fill-opacity="0.75"/>
</svg>
